<?xml version="1.0" encoding="UTF-8"?>
<svg xmlns="http://www.w3.org/2000/svg" width="157" height="40" viewBox="0 0 157 40" fill="none">
  <path d="M78.4133 34.5244L76.9734 38.508H75.8611L74.9643 36.0334L74.0417 38.508H72.9294L71.498 34.5244H72.5845L73.5243 37.2146L74.4987 34.5244H75.473L76.4215 37.2146L77.3872 34.5244H78.4047H78.4133Z" fill="#12487C"></path>
  <path d="M82.716 36.844H79.7067C79.7584 37.0941 79.8878 37.2838 80.0947 37.4304C80.3016 37.5769 80.5517 37.6459 80.8535 37.6459C81.0604 37.6459 81.2415 37.6114 81.4053 37.5511C81.5692 37.4907 81.7157 37.3959 81.8537 37.2579L82.4659 37.9218C82.0951 38.353 81.5433 38.5685 80.8276 38.5685C80.3792 38.5685 79.9826 38.4823 79.6377 38.3099C79.2928 38.1374 79.0255 37.896 78.8358 37.5856C78.6461 37.2751 78.5513 36.9216 78.5513 36.525C78.5513 36.1284 78.6461 35.7835 78.8272 35.473C79.0083 35.1626 79.2669 34.9126 79.586 34.7401C79.9136 34.5677 80.2672 34.4814 80.6724 34.4814C81.0777 34.4814 81.414 34.5677 81.733 34.7315C82.052 34.8953 82.2935 35.1368 82.4745 35.4558C82.6556 35.7662 82.7418 36.137 82.7418 36.5509C82.7418 36.5681 82.7418 36.6716 82.716 36.8613V36.844ZM80.0171 35.5679C79.836 35.7145 79.7326 35.9214 79.6894 36.1715H81.6468C81.6037 35.9214 81.5002 35.7145 81.3191 35.5679C81.138 35.4213 80.9225 35.3437 80.6724 35.3437C80.4224 35.3437 80.1896 35.4213 80.0171 35.5679Z" fill="#12487C"></path>
  <path d="M87.2686 34.6192C87.5015 34.5244 87.7688 34.4727 88.0792 34.4727V35.5419C87.9498 35.5332 87.8636 35.5246 87.8205 35.5246C87.4928 35.5246 87.2342 35.6195 87.0445 35.8005C86.8548 35.9816 86.7599 36.2661 86.7599 36.6283V38.508H85.6045V34.5244H86.7082V35.0504C86.8461 34.8607 87.0358 34.7141 87.2686 34.6106V34.6192Z" fill="#12487C"></path>
  <path d="M92.6061 36.844H89.5968C89.6486 37.0941 89.7779 37.2838 89.9848 37.4304C90.1918 37.5769 90.4418 37.6459 90.7436 37.6459C90.9506 37.6459 91.1316 37.6114 91.2955 37.5511C91.4593 37.4907 91.6059 37.3959 91.7438 37.2579L92.356 37.9218C91.9853 38.353 91.4334 38.5685 90.7178 38.5685C90.2694 38.5685 89.8728 38.4823 89.5278 38.3099C89.1829 38.1374 88.9156 37.896 88.726 37.5856C88.5363 37.2751 88.4414 36.9216 88.4414 36.525C88.4414 36.1284 88.5363 35.7835 88.7173 35.473C88.8984 35.1626 89.1571 34.9126 89.4761 34.7401C89.8038 34.5677 90.1573 34.4814 90.5626 34.4814C90.9678 34.4814 91.3041 34.5677 91.6231 34.7315C91.9422 34.8953 92.1836 35.1368 92.3647 35.4558C92.5457 35.7662 92.632 36.137 92.632 36.5509C92.632 36.5681 92.632 36.6716 92.6061 36.8613V36.844ZM89.9072 35.5679C89.7262 35.7145 89.6227 35.9214 89.5796 36.1715H91.5369C91.4938 35.9214 91.3903 35.7145 91.2092 35.5679C91.0282 35.4213 90.8126 35.3437 90.5626 35.3437C90.3125 35.3437 90.0797 35.4213 89.9072 35.5679Z" fill="#12487C"></path>
  <path d="M97.0033 34.913C97.3051 35.2062 97.4603 35.646 97.4603 36.2323V38.5086H96.3049V36.4047C96.3049 36.0857 96.2359 35.8529 96.0979 35.6977C95.96 35.5425 95.7617 35.4649 95.4944 35.4649C95.2012 35.4649 94.9684 35.5511 94.7959 35.7322C94.6235 35.9133 94.5373 36.1806 94.5373 36.5341V38.5H93.3818V34.5164H94.4855V34.982C94.6407 34.8182 94.8304 34.6889 95.0546 34.594C95.2788 34.4992 95.5288 34.4561 95.8048 34.4561C96.2963 34.4561 96.6929 34.6026 97.0033 34.8958V34.913Z" fill="#12487C"></path>
  <path d="M101.073 38.3189C100.961 38.4052 100.823 38.4655 100.659 38.5086C100.496 38.5517 100.323 38.569 100.133 38.569C99.6591 38.569 99.297 38.4483 99.0383 38.2068C98.7796 37.9654 98.6503 37.6119 98.6503 37.1376V35.4994H98.0381V34.6112H98.6503V33.6455H99.8057V34.6112H100.797V35.4994H99.8057V37.1204C99.8057 37.2842 99.8488 37.4136 99.9351 37.5084C100.021 37.6033 100.142 37.6464 100.297 37.6464C100.478 37.6464 100.633 37.5946 100.763 37.4998L101.073 38.3103V38.3189Z" fill="#12487C"></path>
  <path d="M105.083 34.6194H106.101V35.5075H105.109V38.5082H103.954V35.5075H103.341V34.6194H103.954V34.4383C103.954 33.9813 104.091 33.6278 104.359 33.3605C104.626 33.0932 105.005 32.9639 105.497 32.9639C105.669 32.9639 105.833 32.9811 105.988 33.0156C106.144 33.0501 106.273 33.1018 106.376 33.1708L106.075 34.0072C105.945 33.9123 105.79 33.8692 105.609 33.8692C105.256 33.8692 105.083 34.0589 105.083 34.4469V34.6194Z" fill="#12487C"></path>
  <path d="M107.394 38.3011C107.058 38.1286 106.799 37.8872 106.609 37.5768C106.42 37.2664 106.325 36.9128 106.325 36.5162C106.325 36.1196 106.42 35.766 106.609 35.4556C106.799 35.1452 107.058 34.9038 107.394 34.7313C107.73 34.5589 108.101 34.4727 108.523 34.4727C108.946 34.4727 109.317 34.5589 109.644 34.7313C109.972 34.9038 110.231 35.1452 110.42 35.4556C110.61 35.766 110.705 36.1196 110.705 36.5162C110.705 36.9128 110.61 37.2664 110.42 37.5768C110.231 37.8872 109.972 38.1286 109.644 38.3011C109.317 38.4735 108.937 38.5597 108.523 38.5597C108.11 38.5597 107.73 38.4735 107.394 38.3011ZM109.248 37.3181C109.437 37.1198 109.532 36.8525 109.532 36.5162C109.532 36.1799 109.437 35.9126 109.248 35.7143C109.058 35.516 108.817 35.4125 108.515 35.4125C108.213 35.4125 107.972 35.516 107.782 35.7143C107.592 35.9126 107.497 36.1799 107.497 36.5162C107.497 36.8525 107.592 37.1198 107.782 37.3181C107.972 37.5164 108.222 37.6199 108.515 37.6199C108.808 37.6199 109.049 37.5164 109.248 37.3181Z" fill="#12487C"></path>
  <path d="M113.136 34.6192C113.369 34.5244 113.636 34.4727 113.947 34.4727V35.5419C113.817 35.5332 113.731 35.5246 113.688 35.5246C113.361 35.5246 113.102 35.6195 112.912 35.8005C112.722 35.9816 112.628 36.2661 112.628 36.6283V38.508H111.472V34.5244H112.576V35.0504C112.714 34.8607 112.904 34.7141 113.136 34.6106V34.6192Z" fill="#12487C"></path>
  <path d="M120.707 34.5244L118.913 38.7495C118.732 39.2065 118.508 39.5341 118.232 39.7152C117.965 39.9049 117.637 39.9997 117.258 39.9997C117.051 39.9997 116.844 39.9652 116.646 39.9049C116.447 39.8445 116.275 39.7497 116.146 39.6376L116.568 38.8184C116.654 38.896 116.758 38.9564 116.878 38.9995C116.991 39.0426 117.111 39.0685 117.223 39.0685C117.379 39.0685 117.508 39.034 117.611 38.9564C117.715 38.8788 117.801 38.7495 117.879 38.577L117.896 38.5425L116.171 34.533H117.361L118.482 37.2319L119.603 34.533H120.715L120.707 34.5244Z" fill="#12487C"></path>
  <path d="M121.837 38.3011C121.5 38.1286 121.242 37.8872 121.052 37.5768C120.862 37.2664 120.768 36.9128 120.768 36.5162C120.768 36.1196 120.862 35.766 121.052 35.4556C121.242 35.1452 121.5 34.9038 121.837 34.7313C122.173 34.5589 122.544 34.4727 122.966 34.4727C123.389 34.4727 123.76 34.5589 124.087 34.7313C124.415 34.9038 124.674 35.1452 124.863 35.4556C125.053 35.766 125.148 36.1196 125.148 36.5162C125.148 36.9128 125.053 37.2664 124.863 37.5768C124.674 37.8872 124.415 38.1286 124.087 38.3011C123.76 38.4735 123.38 38.5597 122.966 38.5597C122.552 38.5597 122.173 38.4735 121.837 38.3011ZM123.691 37.3181C123.88 37.1198 123.975 36.8525 123.975 36.5162C123.975 36.1799 123.88 35.9126 123.691 35.7143C123.501 35.516 123.26 35.4125 122.958 35.4125C122.656 35.4125 122.414 35.516 122.225 35.7143C122.035 35.9126 121.94 36.1799 121.94 36.5162C121.94 36.8525 122.035 37.1198 122.225 37.3181C122.414 37.5164 122.665 37.6199 122.958 37.6199C123.251 37.6199 123.492 37.5164 123.691 37.3181Z" fill="#12487C"></path>
  <path d="M129.924 34.5244V38.508H128.829V38.0338C128.674 38.2062 128.493 38.3356 128.286 38.4304C128.07 38.5253 127.846 38.5684 127.596 38.5684C127.07 38.5684 126.656 38.4218 126.354 38.12C126.053 37.8182 125.897 37.3699 125.897 36.7835V34.533H127.053V36.6111C127.053 37.2491 127.32 37.5768 127.855 37.5768C128.131 37.5768 128.355 37.4906 128.519 37.3095C128.683 37.1284 128.769 36.8611 128.769 36.5076V34.5417H129.924V34.5244Z" fill="#12487C"></path>
  <path d="M129.726 11.5978H135.081V16.254H129.881V32.016H123.828V16.254H120.604V11.5978H123.828V10.6665C123.828 8.28672 124.535 6.39838 125.941 5.00153C127.355 3.60468 129.338 2.90625 131.899 2.90625C132.804 2.90625 133.667 3.0011 134.477 3.19942C135.296 3.39774 135.969 3.67366 136.512 4.0358L134.926 8.42468C134.227 7.93319 133.408 7.68314 132.477 7.68314C130.64 7.68314 129.718 8.69198 129.718 10.7097V11.6064L129.726 11.5978Z" fill="#12487C"></path>
  <path d="M112.145 13.8912V11.1406H112.068C112.068 11.1406 112.068 11.1406 112.059 11.1406C112.05 11.1406 112.059 11.1406 112.05 11.1406C108.912 11.1406 106.359 13.6929 106.359 16.8401V32.0244H112.412V22.4965V22.1602C112.412 20.2202 112.904 18.763 113.887 17.7972C114.818 16.8746 116.094 16.409 117.707 16.3573C117.793 16.3573 117.87 16.34 117.965 16.34C118.198 16.34 118.655 16.3659 119.328 16.4176V11.6062C117.724 11.6062 113.999 11.3648 112.145 13.8912Z" fill="#12487C"></path>
  <path d="M79.7928 11.1837C79.7928 11.1837 79.6807 11.1406 79.6721 11.1406L76.7749 19.4786L75.4643 23.2208C75.3349 23.4967 75.059 23.6864 74.74 23.6864C74.4123 23.6864 74.1278 23.4795 74.0071 23.2036L69.6268 11.1406H67.178H64.7292L60.3489 23.2036C60.2196 23.4881 59.9437 23.6864 59.616 23.6864C59.297 23.6864 59.0211 23.4881 58.8917 23.2208L57.5811 19.4786L54.6839 11.1406C54.6667 11.1406 54.5632 11.1837 54.5632 11.1837C51.8471 12.1667 50.4416 15.1674 51.416 17.8835L55.9946 30.5931L56.1498 31.0242L56.5119 32.0244H62.3321L67.1866 19.0561V19.0734L67.1953 19.0561L72.0497 32.0244H77.87L78.2321 31.0242L78.3873 30.5931L82.9659 17.8835C83.9489 15.1674 82.5348 12.1667 79.8187 11.1837H79.7928Z" fill="#12487C"></path>
  <path d="M153.326 11.6147C153.326 11.6147 153.3 11.6061 153.266 11.5889L148.308 23.3586C148.308 23.3586 148.308 23.3586 148.308 23.35C148.17 23.6604 147.86 23.876 147.497 23.876C147.135 23.876 146.851 23.6691 146.704 23.3759L141.841 11.5975H135.59L143.962 31.0672C144.092 31.3776 144.161 31.7225 144.161 32.076C144.161 32.5589 144.023 32.9987 143.798 33.3953C143.531 33.8006 143.255 34.1368 142.953 34.361C142.436 34.7663 141.763 34.9646 140.936 34.9646C140.341 34.9646 139.737 34.8525 139.134 34.6111C138.53 34.3783 137.987 34.0506 137.521 33.6367L135.305 37.948C135.978 38.5429 136.849 39.0086 137.909 39.3448C138.97 39.6811 140.048 39.8536 141.134 39.8536C143.126 39.8536 144.824 39.3621 146.239 38.3791C147.653 37.3962 148.834 35.6975 149.791 33.2918L156.077 18.6507C157.241 15.9346 156.034 12.7874 153.318 11.6147H153.326ZM144.092 32.921C143.997 33.0935 143.91 33.2401 143.816 33.3867C143.91 33.2401 144.005 33.0849 144.092 32.921Z" fill="#12487C"></path>
  <path d="M103.281 23.2978H103.307C103.341 23.2978 103.367 23.2978 103.402 23.2978C104.428 23.2461 105.247 22.4097 105.273 21.375C105.255 20.5386 105.169 19.7453 105.005 18.9952C104.773 17.9001 104.393 16.8826 103.859 15.9514C102.919 14.3131 101.617 13.0542 99.9612 12.1747C98.3056 11.2952 96.4604 10.8555 94.4169 10.8555C92.3733 10.8555 90.4333 11.3125 88.7346 12.2351C87.0446 13.1491 85.7081 14.4338 84.7424 16.0721C83.7766 17.7104 83.2852 19.5556 83.2852 21.5992C83.2852 23.6686 83.7766 25.5138 84.7596 27.1435C85.7426 28.7731 87.1394 30.0493 88.9502 30.9632C90.7609 31.8772 92.8389 32.3429 95.1929 32.3429C98.9696 32.3429 101.832 31.2219 103.798 28.9714L100.582 25.4793C99.8577 26.1777 99.073 26.6865 98.2367 27.0141C97.4003 27.3418 96.4345 27.497 95.3481 27.497C93.7702 27.497 92.4509 27.1262 91.3904 26.3761C90.3298 25.6259 89.6572 24.6084 89.3727 23.315H103.272L103.281 23.2978ZM89.3037 19.7712C89.5106 18.4261 90.0797 17.3655 91.011 16.5895C91.9422 15.8134 93.089 15.4254 94.46 15.4254C95.831 15.4254 96.9433 15.8221 97.8745 16.6067C98.8057 17.3914 99.3748 18.4519 99.5818 19.7626H89.3037V19.7712Z" fill="#12487C"></path>
  <path d="M10.8992 30.5928C11.5976 30.8946 12.3219 31.0412 13.0634 31.0412C13.4083 31.0412 13.7532 31.0067 14.0981 30.9463C15.038 30.7739 15.9779 30.2738 16.7194 29.5495C17.4265 28.8683 17.9438 27.9543 18.1594 26.9713C18.418 25.8332 18.2715 24.6346 17.7541 23.5223C17.4437 22.8498 16.9522 22.3324 16.4693 21.8237C16.2797 21.6253 16.09 21.427 15.9089 21.2115C15.8399 21.1339 15.7795 21.0563 15.7106 20.9787L15.633 20.8924C15.633 20.8924 15.5985 20.8493 15.564 20.7976C15.4088 20.5906 15.2622 20.3751 15.1156 20.1595C14.8397 19.7456 14.5896 19.3145 14.3654 18.8748C14.262 18.6764 14.1671 18.4695 14.0723 18.2626V18.2367C14.0723 18.2367 14.0464 18.1936 14.0378 18.185L13.9861 18.0556C13.9343 17.9263 13.8912 17.7883 13.8395 17.659C13.6756 17.1934 13.5291 16.7019 13.4256 16.2018C13.3652 15.9517 13.3221 15.7189 13.2876 15.4775C13.2876 15.4171 13.2704 15.3568 13.2618 15.2792C13.2618 15.2705 13.2618 15.2447 13.2618 15.2188C13.2531 15.1412 13.2445 15.0722 13.2359 14.9946L13.2186 14.848C13.1755 14.3738 13.1583 13.8564 13.1755 13.3305C13.1842 12.9424 13.2186 12.5372 13.2704 12.1147C13.2704 12.0974 13.2963 11.9164 13.3049 11.8646C13.3135 11.7956 13.3307 11.7353 13.3394 11.6663L13.3566 11.5628C13.3997 11.3473 13.4515 11.1317 13.5032 10.9075C13.6067 10.5109 13.7274 10.1056 13.8826 9.6745C13.9085 9.59689 13.9343 9.52792 13.9688 9.45031L13.9861 9.38995C13.9861 9.38995 14.0637 9.20888 14.0723 9.17439C14.1499 9.00194 14.2275 8.82949 14.3051 8.66566C14.4689 8.31214 14.6672 7.94999 14.9087 7.56197C15.0121 7.38952 15.1242 7.21707 15.2363 7.05324L15.2794 6.98426C15.3225 6.9239 15.3657 6.86355 15.4174 6.79457C15.4346 6.76008 15.4605 6.73421 15.5036 6.67385L15.3829 6.58763L15.5295 6.64798C16.0296 6.00129 16.6073 5.38909 17.2368 4.84587C17.3661 4.73378 17.4868 4.63031 17.6248 4.52684C17.6593 4.50097 17.7627 4.41474 17.7972 4.38888C17.8921 4.3199 17.9783 4.25092 18.0818 4.18194C18.4094 3.94913 18.7543 3.73356 19.151 3.50938C19.5045 3.31106 19.8839 3.12136 20.246 2.95753L20.3926 2.89718C20.4875 2.86269 20.5823 2.81957 20.6772 2.78508C20.8841 2.70748 21.0997 2.6385 21.3066 2.56952C21.8843 2.38845 22.4793 2.25048 23.0742 2.15564L23.2898 2.12115C23.2898 2.12115 23.3329 2.12115 23.3674 2.12115C23.5226 2.1039 23.6864 2.08666 23.8416 2.07803C24.5573 2.01768 25.3419 2.0263 26.1783 2.11252L26.4284 2.13839C26.4715 2.14701 26.5146 2.15564 26.5922 2.16426C26.8164 2.19875 27.032 2.24186 27.2562 2.2936C27.6528 2.37982 28.0753 2.49192 28.4978 2.62988C28.6875 2.69023 28.8858 2.75922 29.1014 2.84544C29.1704 2.87131 29.2307 2.89718 29.2652 2.9058C29.2825 2.91442 29.2997 2.92304 29.3342 2.94029C29.3945 2.96616 29.4549 2.99202 29.5153 3.01789C30.274 3.36279 31.007 3.7853 31.6968 4.28541L31.7485 4.3199C31.7485 4.3199 31.8433 4.38888 31.8692 4.40612L32.0417 4.54408C32.2055 4.68204 32.3779 4.82 32.5418 4.96659C32.8349 5.22526 33.1367 5.51843 33.4299 5.84609C33.5679 5.99267 33.6972 6.14788 33.8265 6.30308C33.8869 6.38068 33.9473 6.45829 34.0162 6.53589C34.0507 6.58763 34.0938 6.63074 34.1197 6.67385C34.3525 6.99289 34.5853 7.32916 34.8181 7.71718C35.0251 8.0707 35.2148 8.43285 35.4045 8.83811C35.4476 8.92434 35.4907 9.01918 35.5424 9.1399C35.551 9.15714 35.5597 9.18301 35.5769 9.2175C35.6545 9.42444 35.7321 9.63138 35.8097 9.83833C35.9477 10.235 36.0684 10.6488 36.1632 11.0714C36.2064 11.2783 36.2495 11.4766 36.284 11.6836L36.3357 11.994L36.3616 12.2613H36.3702C36.4737 13.1839 36.4737 14.1237 36.3702 15.0636C36.3702 15.1239 36.3529 15.1929 36.3443 15.2619V15.3136C36.3271 15.4257 36.3098 15.5292 36.284 15.6327C36.2409 15.8741 36.1891 16.1328 36.1201 16.4173C36.008 16.9002 35.8528 17.3831 35.6804 17.8573L35.6286 17.9866C35.6114 18.0384 35.5855 18.0987 35.5597 18.1677C35.5597 18.185 35.551 18.2022 35.5424 18.2108L35.4648 18.3833C35.37 18.6075 35.2579 18.8316 35.1285 19.0817C34.913 19.5042 34.6457 19.9267 34.3611 20.3492C34.3266 20.4009 34.2835 20.4613 34.249 20.513L34.1025 20.72C34.1025 20.72 34.0421 20.7976 34.0507 20.7976C33.8869 20.9959 33.7231 21.1942 33.5506 21.3839C33.404 21.5477 33.2574 21.703 33.1022 21.8582C32.9557 22.0047 32.8177 22.1513 32.6797 22.3065C31.8692 23.2119 31.4036 24.3501 31.3432 25.5917C31.2398 27.618 32.4555 29.6443 34.3008 30.5238C35.2751 30.9894 36.3443 31.136 37.4825 30.9722C38.431 30.8342 39.3536 30.3772 40.1555 29.6529C41.1988 28.7131 41.8283 27.2731 41.8455 25.8073C41.8455 25.2382 41.3885 24.7812 40.828 24.7726C40.2676 24.7726 39.802 25.2296 39.802 25.79V25.8935C39.802 25.9625 39.802 26.0401 39.7933 26.1091C39.7933 26.1522 39.7933 26.2039 39.7761 26.247C39.7416 26.4454 39.6899 26.6523 39.6209 26.8765L39.5174 27.1352C39.5002 27.1783 39.4743 27.2214 39.4484 27.2731C39.3708 27.4197 39.2846 27.5577 39.1725 27.7129C39.1639 27.7301 39.1466 27.7474 39.1208 27.7818C39.0863 27.825 39.0432 27.8767 39.0259 27.9026C38.9656 27.9715 38.8966 28.0491 38.819 28.1181C38.75 28.1871 38.6724 28.2561 38.6207 28.3078C38.6034 28.3164 38.5776 28.3337 38.5689 28.3509L38.4827 28.4199C38.3275 28.5234 38.1637 28.6269 37.9654 28.7217C37.9395 28.739 37.905 28.7476 37.8705 28.7734H37.8446C37.7498 28.8252 37.6463 28.8597 37.5429 28.8855C37.4049 28.9286 37.2583 28.9631 37.06 28.9976C37.06 28.9976 37.0255 28.9976 37.0083 28.9976C36.9479 28.9976 36.8617 29.0149 36.8272 29.0149C36.7065 29.0235 36.5858 29.0235 36.465 29.0149C36.3616 29.0149 36.2667 29.0063 36.1632 28.989C36.1288 28.989 36.0856 28.9718 36.0253 28.9631C35.827 28.92 35.6114 28.8597 35.3872 28.7821L35.2837 28.7303C35.1975 28.6872 35.1113 28.6441 35.0164 28.5924C34.9302 28.5493 34.8526 28.4975 34.7664 28.4285L34.6888 28.3854C34.6888 28.3854 34.6543 28.3509 34.6371 28.3337C34.4818 28.2044 34.3353 28.0664 34.2059 27.9284C34.1887 27.9112 34.1542 27.8681 34.1197 27.825L34.068 27.7732C34.0249 27.7129 33.9731 27.6439 33.93 27.5749C33.8352 27.4283 33.7489 27.2645 33.6455 27.0576L33.6024 26.9455C33.5592 26.8334 33.5334 26.7299 33.4989 26.6092C33.4816 26.5402 33.4644 26.4712 33.4471 26.4022L33.4299 26.3333C33.4299 26.3333 33.4299 26.2988 33.4299 26.2729V26.1867C33.3954 25.9711 33.3954 25.7383 33.4127 25.4796C33.4127 25.4624 33.4127 25.4279 33.4213 25.402V25.3589C33.4213 25.3589 33.4385 25.2986 33.4385 25.2813C33.4644 25.1692 33.4903 25.0571 33.5247 24.9364C33.5592 24.8243 33.5937 24.7208 33.6368 24.6087V24.5915C33.6541 24.5484 33.68 24.5053 33.7058 24.4535L33.7403 24.3846C33.792 24.2811 33.8524 24.1862 33.9128 24.0828C33.93 24.0569 33.9473 24.031 33.9645 24.0052L34.0162 23.9276C34.0162 23.9276 34.0421 23.8931 34.0335 23.8931C34.1714 23.7292 34.318 23.574 34.456 23.4361C35.9563 21.9358 37.0686 20.1595 37.767 18.1677C39.069 14.4514 38.6379 10.1832 36.6116 6.74283C34.7664 3.60422 31.6709 1.29338 28.1357 0.40526C27.0578 0.137961 25.9369 0 24.8074 0C21.091 0 17.4868 1.54344 14.9259 4.19918C12.3219 6.89804 10.9337 10.5971 11.1061 14.3479C11.2096 16.538 11.8477 18.7023 12.9427 20.5993C13.4515 21.4874 14.0981 22.341 14.8569 23.1515C14.969 23.2723 15.0897 23.393 15.2105 23.5051C15.2967 23.5827 15.3743 23.6689 15.4519 23.7551C15.4605 23.7637 15.4778 23.781 15.4864 23.7982L15.5726 23.9103L15.5985 23.9362C15.7192 24.1086 15.8313 24.2983 15.952 24.5398C15.952 24.557 15.9779 24.5915 15.9779 24.5915C15.9779 24.6174 15.9951 24.6346 16.0124 24.6864C16.0555 24.8157 16.0986 24.945 16.1331 25.0744L16.1503 25.152C16.1676 25.221 16.1848 25.2986 16.1934 25.3503C16.1934 25.3848 16.1934 25.4193 16.1934 25.4365C16.1934 25.4969 16.202 25.5572 16.2107 25.6176C16.2107 25.8073 16.2107 26.0056 16.1934 26.2212C16.1934 26.247 16.1848 26.2729 16.1762 26.2901C16.1762 26.3505 16.1589 26.4195 16.1503 26.4454C16.1331 26.5402 16.1072 26.6437 16.0727 26.7385C16.0468 26.8334 16.0124 26.9282 15.9865 26.9972L15.9692 27.0403C15.9434 27.092 15.9261 27.1352 15.9003 27.1869C15.814 27.3593 15.7192 27.5232 15.5985 27.6956L15.5295 27.7991C15.4605 27.8853 15.3829 27.9715 15.3053 28.0491C15.2622 28.0923 15.2277 28.1268 15.1846 28.1699L14.9863 28.3423C14.8311 28.4544 14.6672 28.5665 14.4689 28.67L14.3137 28.7476C14.3137 28.7476 14.2447 28.7734 14.1671 28.8079L14.0895 28.8338C13.8998 28.9028 13.6929 28.9545 13.4773 28.989H13.4342C13.4342 28.989 13.3911 28.9976 13.3652 28.9976H13.3221C13.2186 29.0063 13.1152 29.0149 13.0031 29.0149C12.9255 29.0149 12.8565 29.0149 12.7789 29.0149H12.6927C12.6496 29.0149 12.6064 28.9976 12.5547 28.9976H12.5116C12.296 28.9545 12.1063 28.9028 11.9253 28.8424C11.908 28.8424 11.8563 28.8166 11.8132 28.7993C11.7701 28.7821 11.7183 28.7648 11.7183 28.7648C11.6407 28.7303 11.5717 28.6958 11.5028 28.6527C11.3562 28.5751 11.2182 28.4889 11.0975 28.394C11.0975 28.394 11.0458 28.3509 11.0113 28.3251C10.9768 28.2992 10.9337 28.2647 10.9251 28.2561C10.8388 28.1785 10.7526 28.1009 10.675 28.0233C10.606 27.9457 10.537 27.8767 10.4767 27.7905L10.4336 27.7301C10.4336 27.7301 10.3818 27.6611 10.356 27.618C10.2956 27.5232 10.2352 27.4283 10.1749 27.3249C10.1404 27.2731 10.1145 27.2128 10.0887 27.161L10.0369 27.0489C9.96795 26.8506 9.90759 26.6437 9.85585 26.4195C9.84723 26.3764 9.83861 26.3333 9.82999 26.2901V26.247C9.81274 26.1091 9.80412 25.9711 9.80412 25.8332C9.80412 25.2727 9.34712 24.8071 8.78666 24.7984C8.51936 24.7984 8.25206 24.9105 8.05374 25.1089C7.85542 25.3072 7.75195 25.5572 7.75195 25.8245C7.76058 27.8939 9.01085 29.8254 10.8647 30.6187L10.8992 30.5928Z" fill="#BE9B30"></path>
  <path d="M36.5683 32.8524C32.7916 32.8524 29.722 29.7828 29.722 26.0061C29.722 24.0746 30.5498 22.2208 31.9811 20.9274C32.1708 20.755 32.2743 20.5308 32.2915 20.2807C32.3088 20.0307 32.2225 19.7892 32.0501 19.5995C31.7052 19.2115 31.1102 19.1857 30.7222 19.5306C28.8942 21.1861 27.8423 23.5487 27.8423 26.0147C27.8423 30.8261 31.7569 34.7494 36.5769 34.7494C41.3969 34.7494 45.3029 30.8347 45.3029 26.0147C45.3029 25.4974 44.8804 25.0749 44.3631 25.0749C43.8457 25.0749 43.4232 25.4974 43.4232 26.0147C43.4232 29.7914 40.3536 32.861 36.5769 32.861L36.5683 32.8524Z" fill="#BE9B30"></path>
  <path d="M13.0978 34.7318C17.9091 34.7318 21.8324 30.8171 21.8324 25.9971C21.8324 23.5311 20.7805 21.1685 18.9525 19.513C18.5645 19.1681 17.9695 19.194 17.6246 19.582C17.2797 19.97 17.3056 20.5649 17.6936 20.9098C19.1335 22.2032 19.9527 24.0571 19.9527 25.9885C19.9527 29.7652 16.8831 32.8348 13.1064 32.8348C9.32971 32.8348 6.26009 29.7652 6.26009 25.9885C6.26009 25.4712 5.83758 25.0487 5.32023 25.0487C4.80288 25.0487 4.38037 25.4712 4.38037 25.9885C4.38037 30.7999 8.29501 34.7232 13.1064 34.7232L13.0978 34.7318Z" fill="#BE9B30"></path>
  <path d="M48.5967 24.4019C48.019 24.4019 47.5533 24.8675 47.5533 25.4453C47.5533 31.5328 42.604 36.4821 36.5165 36.4821C31.4637 36.4821 27.2128 33.0762 25.9021 28.4373C26.1263 27.4716 26.2643 26.4713 26.2643 25.4453C26.2643 24.4192 26.1349 23.2724 25.8676 22.229C25.7469 21.7462 25.2986 21.4444 24.8243 21.4616C24.626 21.4616 24.4363 21.4875 24.2638 21.591C24.0224 21.7376 23.8586 21.9617 23.7896 22.229C23.5223 23.2724 23.393 24.3588 23.393 25.4453C23.393 26.5317 23.5223 27.4802 23.7551 28.4373C22.4445 33.0762 18.185 36.4821 13.1408 36.4821C7.05324 36.4821 2.1039 31.5328 2.1039 25.4453C2.1039 24.8675 1.63828 24.4019 1.06057 24.4019C0.482863 24.4019 0 24.8675 0 25.4453C0 32.6882 5.8892 38.5774 13.1321 38.5774C18.2367 38.5774 22.6514 35.6457 24.8243 31.3862C26.9972 35.6457 31.4206 38.5774 36.5165 38.5774C43.7594 38.5774 49.6486 32.6882 49.6486 25.4453C49.6486 24.8675 49.183 24.4019 48.6053 24.4019H48.5967Z" fill="#BE9B30"></path>
</svg>
